REM MD5 75bd0bb57e9843b4fc642fa11674f915
FILE "Tomb Raider III - Les Aventures de Lara Croft (France) (Demo).bin" BINARY
  TRACK 01 MODE2/2352
    INDEX 01 00:00:00
  TRACK 02 AUDIO
    INDEX 00 03:07:01
    INDEX 01 03:09:01
  TRACK 03 AUDIO
    INDEX 00 05:28:19
    INDEX 01 05:30:19
REM LEADOUT 08:31:19
